<svg width="151" height="39" viewBox="0 0 151 39" fill="none" xmlns="http://www.w3.org/2000/svg">
<g filter="url(#filter0_d_505:351)">
<rect x="4" width="143" height="30.7673" rx="12" fill="white"/>
</g>
<path d="M41.6029 15.0418V8.80184H40.2829V23.2018H41.6029V16.2418H44.0779V15.0418H41.6029ZM31.9729 14.2168V10.6018H30.6529V20.2018H37.5529V10.6018H36.2329V14.2168H31.9729ZM31.9729 18.9868V15.4168H36.2329V18.9868H31.9729ZM52.4029 17.6518H57.1879V16.4668H48.3979V14.4568H56.3029V10.1518H46.9279V11.3368H54.9679V13.2568H47.0629V17.6518H51.0529V20.2468H44.6029V21.4918H58.8529V20.2468H52.4029V17.6518ZM76.2494 23.2018V8.80184H74.8994V23.2018H76.2494ZM68.2244 20.5318C70.5494 20.5318 72.0494 18.7168 72.0494 15.5068C72.0494 12.3118 70.5494 10.4968 68.2244 10.4968C65.8994 10.4968 64.3994 12.3118 64.3994 15.5068C64.3994 18.7168 65.8994 20.5318 68.2244 20.5318ZM68.2244 19.2718C66.6944 19.2718 65.7794 17.9818 65.7794 15.5068C65.7794 13.0468 66.6944 11.7568 68.2244 11.7568C69.7544 11.7568 70.6694 13.0468 70.6694 15.5068C70.6694 17.9818 69.7544 19.2718 68.2244 19.2718ZM88.9094 13.6468C89.8844 13.2268 90.4244 12.5668 90.4244 11.6818C90.4244 10.0618 88.6094 9.17684 85.6244 9.17684C82.6394 9.17684 80.8244 10.0618 80.8244 11.6818C80.8244 12.5668 81.3644 13.2268 82.3394 13.6468V15.6718H78.4994V16.9018H92.7494V15.6718H88.9094V13.6468ZM82.5944 10.9468C83.1194 10.6018 84.1844 10.3768 85.6244 10.3768C87.0644 10.3768 88.1144 10.5868 88.6544 10.9468C88.9244 11.1268 89.0444 11.3818 89.0444 11.6818C89.0444 11.9818 88.9244 12.2368 88.6544 12.4168C88.1294 12.7768 87.0644 12.9868 85.6244 12.9868C84.1844 12.9868 83.1194 12.7768 82.5944 12.4168C82.3244 12.2368 82.2044 11.9818 82.2044 11.6818C82.2044 11.3818 82.3244 11.1268 82.5944 10.9468ZM83.6594 14.0368C84.2444 14.1268 84.8894 14.1868 85.6244 14.1868C86.3594 14.1868 87.0044 14.1268 87.5894 14.0368V15.6718H83.6594V14.0368ZM85.6244 17.9668C82.6244 17.9668 80.8694 18.9268 80.8694 20.6218C80.8694 22.3168 82.6244 23.2768 85.6244 23.2768C88.6244 23.2768 90.3794 22.3168 90.3794 20.6218C90.3794 18.9268 88.6244 17.9668 85.6244 17.9668ZM88.5644 21.5218C88.0244 21.8518 87.0494 22.0768 85.6244 22.0768C84.1994 22.0768 83.2094 21.8668 82.6844 21.5218C82.3994 21.2968 82.2494 20.9818 82.2494 20.6218C82.2494 20.2618 82.3844 19.9468 82.6844 19.7218C83.2094 19.3768 84.1994 19.1668 85.6244 19.1668C87.0494 19.1668 88.0244 19.3918 88.5644 19.7218C88.8644 19.9468 88.9994 20.2618 88.9994 20.6218C88.9994 20.9818 88.8644 21.2968 88.5644 21.5218ZM105.499 15.0418V8.80184H104.179V23.2018H105.499V16.2418H107.974V15.0418H105.499ZM95.4044 9.85184V11.0518H101.164V9.85184H95.4044ZM102.574 14.0218V12.7918H93.6494V14.0218H102.574ZM98.2694 15.2968C96.2744 15.2968 94.9544 16.5268 94.9544 18.1768C94.9544 19.8268 96.2744 21.0568 98.2694 21.0568C100.264 21.0568 101.569 19.8268 101.569 18.1768C101.569 16.5268 100.264 15.2968 98.2694 15.2968ZM98.2694 19.8568C97.0094 19.8568 96.3044 19.2268 96.3044 18.1768C96.3044 17.1418 97.0094 16.4968 98.2694 16.4968C99.5294 16.4968 100.234 17.1418 100.234 18.1768C100.234 19.2268 99.5294 19.8568 98.2694 19.8568ZM121.249 23.2018V8.80184H119.899V23.2018H121.249ZM109.924 20.8168C113.689 19.1218 116.779 15.6868 117.304 11.0518H109.819V12.2968H115.699V12.3418C115.069 15.1168 112.804 18.0418 109.024 19.6618L109.924 20.8168Z" fill="#3E1F4B"/>
<defs>
<filter id="filter0_d_505:351" x="0" y="0" width="151" height="38.7673" filterUnits="userSpaceOnUse" color-interpolation-filters="sRGB">
<feFlood flood-opacity="0" result="BackgroundImageFix"/>
<feColorMatrix in="SourceAlpha" type="matrix" values="0 0 0 0 0 0 0 0 0 0 0 0 0 0 0 0 0 0 127 0" result="hardAlpha"/>
<feOffset dy="4"/>
<feGaussianBlur stdDeviation="2"/>
<feComposite in2="hardAlpha" operator="out"/>
<feColorMatrix type="matrix" values="0 0 0 0 1 0 0 0 0 1 0 0 0 0 1 0 0 0 0.3 0"/>
<feBlend mode="normal" in2="BackgroundImageFix" result="effect1_dropShadow_505:351"/>
<feBlend mode="normal" in="SourceGraphic" in2="effect1_dropShadow_505:351" result="shape"/>
</filter>
</defs>
</svg>
