<svg width="175" height="45" viewBox="0 0 175 45" fill="none" xmlns="http://www.w3.org/2000/svg">
<g filter="url(#filter0_d_501:32)">
<rect x="4" width="167" height="37" rx="12" fill="#3E1F4B"/>
<path d="M27.3785 16.215H23.2535V17.415H27.3785V25.5H28.7285V11.1H27.3785V16.215ZM20.2835 12.765C20.0735 16.77 18.4835 19.935 16.2785 21.975L17.3435 22.935C18.5885 21.72 19.6385 20.22 20.4035 18.42L24.5735 22.5L25.3985 21.51L20.8685 17.19C21.3035 15.87 21.5735 14.4 21.6785 12.81L20.2835 12.765ZM43.7285 25.5V11.1H42.3785V25.5H43.7285ZM39.2285 22.5V12.9H37.9085V16.515H33.5885V12.9H32.2535V22.5H39.2285ZM33.5885 17.715H37.9085V21.285H33.5885V17.715ZM58.6535 19.875L59.4485 18.795L53.4935 14.7C53.8835 14.055 54.2135 13.365 54.4535 12.615L53.1185 12.3C52.0685 15.315 49.3835 17.55 46.5335 18.81L47.2685 19.995C49.2785 19.02 51.3035 17.61 52.7585 15.765L58.6535 19.875ZM45.9785 23.79H60.2285V22.545H45.9785V23.79ZM77.625 25.5V11.1H76.275V25.5H77.625ZM69.6 22.83C71.925 22.83 73.425 21.015 73.425 17.805C73.425 14.61 71.925 12.795 69.6 12.795C67.275 12.795 65.775 14.61 65.775 17.805C65.775 21.015 67.275 22.83 69.6 22.83ZM69.6 21.57C68.07 21.57 67.155 20.28 67.155 17.805C67.155 15.345 68.07 14.055 69.6 14.055C71.13 14.055 72.045 15.345 72.045 17.805C72.045 20.28 71.13 21.57 69.6 21.57ZM90.285 15.945C91.26 15.525 91.8 14.865 91.8 13.98C91.8 12.36 89.985 11.475 87 11.475C84.015 11.475 82.2 12.36 82.2 13.98C82.2 14.865 82.74 15.525 83.715 15.945V17.97H79.875V19.2H94.125V17.97H90.285V15.945ZM83.97 13.245C84.495 12.9 85.56 12.675 87 12.675C88.44 12.675 89.49 12.885 90.03 13.245C90.3 13.425 90.42 13.68 90.42 13.98C90.42 14.28 90.3 14.535 90.03 14.715C89.505 15.075 88.44 15.285 87 15.285C85.56 15.285 84.495 15.075 83.97 14.715C83.7 14.535 83.58 14.28 83.58 13.98C83.58 13.68 83.7 13.425 83.97 13.245ZM85.035 16.335C85.62 16.425 86.265 16.485 87 16.485C87.735 16.485 88.38 16.425 88.965 16.335V17.97H85.035V16.335ZM87 20.265C84 20.265 82.245 21.225 82.245 22.92C82.245 24.615 84 25.575 87 25.575C90 25.575 91.755 24.615 91.755 22.92C91.755 21.225 90 20.265 87 20.265ZM89.94 23.82C89.4 24.15 88.425 24.375 87 24.375C85.575 24.375 84.585 24.165 84.06 23.82C83.775 23.595 83.625 23.28 83.625 22.92C83.625 22.56 83.76 22.245 84.06 22.02C84.585 21.675 85.575 21.465 87 21.465C88.425 21.465 89.4 21.69 89.94 22.02C90.24 22.245 90.375 22.56 90.375 22.92C90.375 23.28 90.24 23.595 89.94 23.82ZM106.875 11.1H105.555V19.65H106.875V16.515H109.35V15.315H106.875V11.1ZM101.31 12.15V14.46H97.14V12.15H95.85V18.825H102.6V12.15H101.31ZM97.14 17.7V15.57H101.31V17.7H97.14ZM102.27 19.89C99.27 19.89 97.515 20.955 97.515 22.725C97.515 24.51 99.27 25.575 102.27 25.575C105.27 25.575 107.025 24.51 107.025 22.725C107.025 20.955 105.27 19.89 102.27 19.89ZM105.195 23.73C104.67 24.12 103.68 24.375 102.27 24.375C100.86 24.375 99.87 24.135 99.345 23.73C99.045 23.475 98.895 23.145 98.895 22.725C98.895 22.32 99.045 21.975 99.345 21.735C99.885 21.345 100.86 21.09 102.27 21.09C103.68 21.09 104.655 21.345 105.195 21.735C105.495 21.975 105.645 22.32 105.645 22.725C105.645 23.145 105.495 23.475 105.195 23.73ZM121.275 14.715H117.975V12.075H116.685V14.34H112.44V12.075H111.15V18.675H117.975V15.915H121.275V18.75H122.625V11.1H121.275V14.715ZM112.44 17.55V15.465H116.685V17.55H112.44ZM114.885 21.3V19.575H113.55V25.425H122.625V19.575H121.29V21.3H114.885ZM114.885 24.24V22.44H121.29V24.24H114.885ZM136.571 19.5H140.621V12.375H139.271V14.79H132.521V12.375H131.171V19.5H135.221V22.545H128.771V23.79H143.021V22.545H136.571V19.5ZM139.271 15.99V18.3H132.521V15.99H139.271ZM156.521 25.5V11.1H155.171V25.5H156.521ZM145.196 23.115C148.961 21.42 152.051 17.985 152.576 13.35H145.091V14.595H150.971V14.64C150.341 17.415 148.076 20.34 144.296 21.96L145.196 23.115Z" fill="white"/>
</g>
<defs>
<filter id="filter0_d_501:32" x="0" y="0" width="175" height="45" filterUnits="userSpaceOnUse" color-interpolation-filters="sRGB">
<feFlood flood-opacity="0" result="BackgroundImageFix"/>
<feColorMatrix in="SourceAlpha" type="matrix" values="0 0 0 0 0 0 0 0 0 0 0 0 0 0 0 0 0 0 127 0" result="hardAlpha"/>
<feOffset dy="4"/>
<feGaussianBlur stdDeviation="2"/>
<feComposite in2="hardAlpha" operator="out"/>
<feColorMatrix type="matrix" values="0 0 0 0 0 0 0 0 0 0 0 0 0 0 0 0 0 0 0.3 0"/>
<feBlend mode="normal" in2="BackgroundImageFix" result="effect1_dropShadow_501:32"/>
<feBlend mode="normal" in="SourceGraphic" in2="effect1_dropShadow_501:32" result="shape"/>
</filter>
</defs>
</svg>
